<svg width="96" height="96" viewBox="0 0 96 96" fill="none" xmlns="http://www.w3.org/2000/svg">
  <rect width="96" height="96" rx="12" fill="#F2F3FC"/>
  <circle cx="48" cy="35" r="15" fill="#C8D7F2"/>
  <path d="M24 78C24 64.7452 34.7452 54 48 54C61.2548 54 72 64.7452 72 78V80H24V78Z" fill="#A7BFE8"/>
  <path d="M64 30H58V24C58 22.8954 57.1046 22 56 22H40C38.8954 22 38 22.8954 38 24V30H32C30.8954 30 30 30.8954 30 32V40C30 41.1046 30.8954 42 32 42H38V48C38 49.1046 38.8954 50 40 50H56C57.1046 50 58 49.1046 58 48V42H64C65.1046 42 66 41.1046 66 40V32C66 30.8954 65.1046 30 64 30Z" fill="#1976D2" fill-opacity="0.25"/>
</svg>

